<?xml version="1.0" encoding="UTF-8" standalone="no"?>
<!DOCTYPE svg PUBLIC "-//W3C//DTD SVG 1.1//EN"
 "http://www.w3.org/Graphics/SVG/1.1/DTD/svg11.dtd">
<!-- Generated by graphviz version 5.0.0 (20220707.1540)
 -->
<!-- Title: dependencies Pages: 1 -->
<svg width="856pt" height="174pt"
 viewBox="0.00 0.00 856.00 173.80" xmlns="http://www.w3.org/2000/svg" xmlns:xlink="http://www.w3.org/1999/xlink">
<g id="graph0" class="graph" transform="scale(1 1) rotate(0) translate(4 169.8)">
<title>dependencies</title>
<polygon fill="white" stroke="transparent" points="-4,4 -4,-169.8 852,-169.8 852,4 -4,4"/>
<text text-anchor="middle" x="424" y="-8.2" font-family="sans-serif" font-size="14.00">dependencies</text>
<g id="clust1" class="cluster">
<title>cluster_AppModule</title>
<polygon fill="none" stroke="black" stroke-dasharray="1,5" points="8,-32.8 8,-157.8 840,-157.8 840,-32.8 8,-32.8"/>
</g>
<g id="clust6" class="cluster">
<title>cluster_AppModule_providers</title>
<polygon fill="none" stroke="black" points="702,-40.8 702,-92.8 832,-92.8 832,-40.8 702,-40.8"/>
</g>
<g id="clust3" class="cluster">
<title>cluster_AppModule_imports</title>
<polygon fill="none" stroke="black" points="16,-40.8 16,-92.8 694,-92.8 694,-40.8 16,-40.8"/>
</g>
<!-- AuthModule -->
<g id="node1" class="node">
<title>AuthModule</title>
<polygon fill="#8dd3c7" stroke="black" points="685.55,-84.8 682.55,-88.8 661.55,-88.8 658.55,-84.8 598.45,-84.8 598.45,-48.8 685.55,-48.8 685.55,-84.8"/>
<text text-anchor="middle" x="642" y="-62.6" font-family="Times,serif" font-size="14.00">AuthModule</text>
</g>
<!-- AppModule -->
<g id="node7" class="node">
<title>AppModule</title>
<polygon fill="#8dd3c7" stroke="black" points="457.66,-149.8 454.66,-153.8 433.66,-153.8 430.66,-149.8 374.34,-149.8 374.34,-113.8 457.66,-113.8 457.66,-149.8"/>
<text text-anchor="middle" x="416" y="-127.6" font-family="Times,serif" font-size="14.00">AppModule</text>
</g>
<!-- AuthModule&#45;&gt;AppModule -->
<g id="edge1" class="edge">
<title>AuthModule&#45;&gt;AppModule</title>
<path fill="none" stroke="black" d="M642,-84.91C642,-104.14 642,-131.8 642,-131.8 642,-131.8 467.72,-131.8 467.72,-131.8"/>
<polygon fill="black" stroke="black" points="467.72,-128.3 457.72,-131.8 467.72,-135.3 467.72,-128.3"/>
</g>
<!-- PrismaModule -->
<g id="node2" class="node">
<title>PrismaModule</title>
<polygon fill="#8dd3c7" stroke="black" points="580.44,-84.8 577.44,-88.8 556.44,-88.8 553.44,-84.8 481.56,-84.8 481.56,-48.8 580.44,-48.8 580.44,-84.8"/>
<text text-anchor="middle" x="531" y="-62.6" font-family="Times,serif" font-size="14.00">PrismaModule</text>
</g>
<!-- PrismaModule&#45;&gt;AppModule -->
<g id="edge2" class="edge">
<title>PrismaModule&#45;&gt;AppModule</title>
<path fill="none" stroke="black" d="M531,-84.83C531,-101.2 531,-122.8 531,-122.8 531,-122.8 467.84,-122.8 467.84,-122.8"/>
<polygon fill="black" stroke="black" points="467.84,-119.3 457.84,-122.8 467.84,-126.3 467.84,-119.3"/>
</g>
<!-- ResultModule -->
<g id="node3" class="node">
<title>ResultModule</title>
<polygon fill="#8dd3c7" stroke="black" points="463.83,-84.8 460.83,-88.8 439.83,-88.8 436.83,-84.8 368.17,-84.8 368.17,-48.8 463.83,-48.8 463.83,-84.8"/>
<text text-anchor="middle" x="416" y="-62.6" font-family="Times,serif" font-size="14.00">ResultModule</text>
</g>
<!-- ResultModule&#45;&gt;AppModule -->
<g id="edge3" class="edge">
<title>ResultModule&#45;&gt;AppModule</title>
<path fill="none" stroke="black" d="M416,-84.91C416,-84.91 416,-103.79 416,-103.79"/>
<polygon fill="black" stroke="black" points="412.5,-103.79 416,-113.79 419.5,-103.79 412.5,-103.79"/>
</g>
<!-- SpecialtiesModule -->
<g id="node4" class="node">
<title>SpecialtiesModule</title>
<polygon fill="#8dd3c7" stroke="black" points="350.2,-84.8 347.2,-88.8 326.2,-88.8 323.2,-84.8 229.8,-84.8 229.8,-48.8 350.2,-48.8 350.2,-84.8"/>
<text text-anchor="middle" x="290" y="-62.6" font-family="Times,serif" font-size="14.00">SpecialtiesModule</text>
</g>
<!-- SpecialtiesModule&#45;&gt;AppModule -->
<g id="edge4" class="edge">
<title>SpecialtiesModule&#45;&gt;AppModule</title>
<path fill="none" stroke="black" d="M290,-84.83C290,-101.2 290,-122.8 290,-122.8 290,-122.8 364.04,-122.8 364.04,-122.8"/>
<polygon fill="black" stroke="black" points="364.04,-126.3 374.04,-122.8 364.04,-119.3 364.04,-126.3"/>
</g>
<!-- TestModule -->
<g id="node5" class="node">
<title>TestModule</title>
<polygon fill="#8dd3c7" stroke="black" points="211.66,-84.8 208.66,-88.8 187.66,-88.8 184.66,-84.8 128.34,-84.8 128.34,-48.8 211.66,-48.8 211.66,-84.8"/>
<text text-anchor="middle" x="170" y="-62.6" font-family="Times,serif" font-size="14.00">TestModule</text>
</g>
<!-- TestModule&#45;&gt;AppModule -->
<g id="edge5" class="edge">
<title>TestModule&#45;&gt;AppModule</title>
<path fill="none" stroke="black" d="M170,-84.91C170,-104.14 170,-131.8 170,-131.8 170,-131.8 364.27,-131.8 364.27,-131.8"/>
<polygon fill="black" stroke="black" points="364.27,-135.3 374.27,-131.8 364.27,-128.3 364.27,-135.3"/>
</g>
<!-- UserModule -->
<g id="node6" class="node">
<title>UserModule</title>
<polygon fill="#8dd3c7" stroke="black" points="109.99,-84.8 106.99,-88.8 85.99,-88.8 82.99,-84.8 24.01,-84.8 24.01,-48.8 109.99,-48.8 109.99,-84.8"/>
<text text-anchor="middle" x="67" y="-62.6" font-family="Times,serif" font-size="14.00">UserModule</text>
</g>
<!-- UserModule&#45;&gt;AppModule -->
<g id="edge6" class="edge">
<title>UserModule&#45;&gt;AppModule</title>
<path fill="none" stroke="black" d="M67,-85.09C67,-107.01 67,-140.8 67,-140.8 67,-140.8 364.25,-140.8 364.25,-140.8"/>
<polygon fill="black" stroke="black" points="364.25,-144.3 374.25,-140.8 364.25,-137.3 364.25,-144.3"/>
</g>
<!-- AppService -->
<g id="node8" class="node">
<title>AppService</title>
<ellipse fill="#fdb462" stroke="black" cx="767" cy="-66.8" rx="56.75" ry="18"/>
<text text-anchor="middle" x="767" y="-62.6" font-family="Times,serif" font-size="14.00">AppService</text>
</g>
<!-- AppService&#45;&gt;AppModule -->
<g id="edge7" class="edge">
<title>AppService&#45;&gt;AppModule</title>
<path fill="none" stroke="black" d="M767,-85.09C767,-107.01 767,-140.8 767,-140.8 767,-140.8 467.99,-140.8 467.99,-140.8"/>
<polygon fill="black" stroke="black" points="467.99,-137.3 457.99,-140.8 467.99,-144.3 467.99,-137.3"/>
</g>
</g>
</svg>
