<?xml version="1.0" encoding="UTF-8" standalone="no"?>
<!DOCTYPE svg PUBLIC "-//W3C//DTD SVG 1.1//EN"
 "http://www.w3.org/Graphics/SVG/1.1/DTD/svg11.dtd">
<!-- Generated by graphviz version 5.0.0 (20220707.1540)
 -->
<!-- Title: dependencies Pages: 1 -->
<svg width="292pt" height="174pt"
 viewBox="0.00 0.00 292.00 173.80" xmlns="http://www.w3.org/2000/svg" xmlns:xlink="http://www.w3.org/1999/xlink">
<g id="graph0" class="graph" transform="scale(1 1) rotate(0) translate(4 169.8)">
<title>dependencies</title>
<polygon fill="white" stroke="transparent" points="-4,4 -4,-169.8 288,-169.8 288,4 -4,4"/>
<text text-anchor="middle" x="142" y="-8.2" font-family="sans-serif" font-size="14.00">dependencies</text>
<g id="clust1" class="cluster">
<title>cluster_TestModule</title>
<polygon fill="none" stroke="black" stroke-dasharray="1,5" points="8,-32.8 8,-157.8 276,-157.8 276,-32.8 8,-32.8"/>
</g>
<g id="clust3" class="cluster">
<title>cluster_TestModule_imports</title>
<polygon fill="none" stroke="black" points="154,-40.8 154,-92.8 268,-92.8 268,-40.8 154,-40.8"/>
</g>
<g id="clust6" class="cluster">
<title>cluster_TestModule_providers</title>
<polygon fill="none" stroke="black" points="16,-40.8 16,-92.8 146,-92.8 146,-40.8 16,-40.8"/>
</g>
<!-- PrismaModule -->
<g id="node1" class="node">
<title>PrismaModule</title>
<polygon fill="#8dd3c7" stroke="black" points="260.44,-84.8 257.44,-88.8 236.44,-88.8 233.44,-84.8 161.56,-84.8 161.56,-48.8 260.44,-48.8 260.44,-84.8"/>
<text text-anchor="middle" x="211" y="-62.6" font-family="Times,serif" font-size="14.00">PrismaModule</text>
</g>
<!-- TestModule -->
<g id="node2" class="node">
<title>TestModule</title>
<polygon fill="#8dd3c7" stroke="black" points="187.66,-149.8 184.66,-153.8 163.66,-153.8 160.66,-149.8 104.34,-149.8 104.34,-113.8 187.66,-113.8 187.66,-149.8"/>
<text text-anchor="middle" x="146" y="-127.6" font-family="Times,serif" font-size="14.00">TestModule</text>
</g>
<!-- PrismaModule&#45;&gt;TestModule -->
<g id="edge1" class="edge">
<title>PrismaModule&#45;&gt;TestModule</title>
<path fill="none" stroke="black" d="M174.8,-84.91C174.8,-84.91 174.8,-103.79 174.8,-103.79"/>
<polygon fill="black" stroke="black" points="171.3,-103.79 174.8,-113.79 178.3,-103.79 171.3,-103.79"/>
</g>
<!-- TestService -->
<g id="node3" class="node">
<title>TestService</title>
<ellipse fill="#fdb462" stroke="black" cx="81" cy="-66.8" rx="56.74" ry="18"/>
<text text-anchor="middle" x="81" y="-62.6" font-family="Times,serif" font-size="14.00">TestService</text>
</g>
<!-- TestService&#45;&gt;TestModule -->
<g id="edge2" class="edge">
<title>TestService&#45;&gt;TestModule</title>
<path fill="none" stroke="black" d="M120.9,-79.64C120.9,-79.64 120.9,-103.32 120.9,-103.32"/>
<polygon fill="black" stroke="black" points="117.4,-103.32 120.9,-113.32 124.4,-103.32 117.4,-103.32"/>
</g>
</g>
</svg>
