<?xml version="1.0" encoding="UTF-8" standalone="no"?>
<!DOCTYPE svg PUBLIC "-//W3C//DTD SVG 1.1//EN"
 "http://www.w3.org/Graphics/SVG/1.1/DTD/svg11.dtd">
<!-- Generated by graphviz version 5.0.0 (20220707.1540)
 -->
<!-- Title: dependencies Pages: 1 -->
<svg width="308pt" height="174pt"
 viewBox="0.00 0.00 308.00 173.80" xmlns="http://www.w3.org/2000/svg" xmlns:xlink="http://www.w3.org/1999/xlink">
<g id="graph0" class="graph" transform="scale(1 1) rotate(0) translate(4 169.8)">
<title>dependencies</title>
<polygon fill="white" stroke="transparent" points="-4,4 -4,-169.8 304,-169.8 304,4 -4,4"/>
<text text-anchor="middle" x="150" y="-8.2" font-family="sans-serif" font-size="14.00">dependencies</text>
<g id="clust1" class="cluster">
<title>cluster_ResultModule</title>
<polygon fill="none" stroke="black" stroke-dasharray="1,5" points="8,-32.8 8,-157.8 292,-157.8 292,-32.8 8,-32.8"/>
</g>
<g id="clust6" class="cluster">
<title>cluster_ResultModule_providers</title>
<polygon fill="none" stroke="black" points="138,-40.8 138,-92.8 284,-92.8 284,-40.8 138,-40.8"/>
</g>
<g id="clust3" class="cluster">
<title>cluster_ResultModule_imports</title>
<polygon fill="none" stroke="black" points="16,-40.8 16,-92.8 130,-92.8 130,-40.8 16,-40.8"/>
</g>
<!-- PrismaModule -->
<g id="node1" class="node">
<title>PrismaModule</title>
<polygon fill="#8dd3c7" stroke="black" points="122.44,-84.8 119.44,-88.8 98.44,-88.8 95.44,-84.8 23.56,-84.8 23.56,-48.8 122.44,-48.8 122.44,-84.8"/>
<text text-anchor="middle" x="73" y="-62.6" font-family="Times,serif" font-size="14.00">PrismaModule</text>
</g>
<!-- ResultModule -->
<g id="node2" class="node">
<title>ResultModule</title>
<polygon fill="#8dd3c7" stroke="black" points="189.83,-149.8 186.83,-153.8 165.83,-153.8 162.83,-149.8 94.17,-149.8 94.17,-113.8 189.83,-113.8 189.83,-149.8"/>
<text text-anchor="middle" x="142" y="-127.6" font-family="Times,serif" font-size="14.00">ResultModule</text>
</g>
<!-- PrismaModule&#45;&gt;ResultModule -->
<g id="edge1" class="edge">
<title>PrismaModule&#45;&gt;ResultModule</title>
<path fill="none" stroke="black" d="M108.28,-84.91C108.28,-84.91 108.28,-103.79 108.28,-103.79"/>
<polygon fill="black" stroke="black" points="104.78,-103.79 108.28,-113.79 111.78,-103.79 104.78,-103.79"/>
</g>
<!-- ResultService -->
<g id="node3" class="node">
<title>ResultService</title>
<ellipse fill="#fdb462" stroke="black" cx="211" cy="-66.8" rx="64.85" ry="18"/>
<text text-anchor="middle" x="211" y="-62.6" font-family="Times,serif" font-size="14.00">ResultService</text>
</g>
<!-- ResultService&#45;&gt;ResultModule -->
<g id="edge2" class="edge">
<title>ResultService&#45;&gt;ResultModule</title>
<path fill="none" stroke="black" d="M168,-80.27C168,-80.27 168,-103.66 168,-103.66"/>
<polygon fill="black" stroke="black" points="164.5,-103.66 168,-113.66 171.5,-103.66 164.5,-103.66"/>
</g>
</g>
</svg>
